<svg width="32" height="32" viewBox="0 0 32 32" fill="none" xmlns="http://www.w3.org/2000/svg">
<path fill-rule="evenodd" clip-rule="evenodd" d="M22.1305 24.5618C19.8074 26.3682 16.8884 27.4439 13.7181 27.4439C6.14181 27.4439 0 21.3004 0 13.7219C0 6.14352 6.14181 0 13.7181 0C21.2944 0 27.4362 6.14352 27.4362 13.7219C27.4362 16.8928 26.361 19.8124 24.5554 22.136L31.497 29.0712C32.1671 29.7406 32.1677 30.8266 31.4985 31.4969C30.8292 32.1671 29.7435 32.1678 29.0734 31.4983L22.1305 24.5618ZM24.0067 13.7219C24.0067 19.4058 19.4003 24.0134 13.7181 24.0134C8.03588 24.0134 3.42953 19.4058 3.42953 13.7219C3.42953 8.03813 8.03588 3.43049 13.7181 3.43049C19.4003 3.43049 24.0067 8.03813 24.0067 13.7219Z" fill="#40695A"/>
</svg>
