<svg width="52" height="36" viewBox="0 0 52 36" fill="none" xmlns="http://www.w3.org/2000/svg">
<path fill-rule="evenodd" clip-rule="evenodd" d="M19 2C19 0.89543 19.8955 0 21 0H50C51.1046 0 52 0.89543 52 2C52 3.10457 51.1046 4 50 4H21C19.8955 4 19 3.10457 19 2ZM22.6066 25.5147L13.0607 35.0607C12.4749 35.6464 11.5252 35.6464 10.9394 35.0607L1.39344 25.5147C0.807655 24.9289 0.807655 23.9792 1.39344 23.3934C1.97923 22.8076 2.92898 22.8076 3.51476 23.3934L10.5 30.3787V2C10.5 1.17157 11.1716 0.5 12 0.5C12.8285 0.5 13.5 1.17157 13.5 2V30.3787L20.4853 23.3934C21.0711 22.8076 22.0209 22.8076 22.6066 23.3934C23.1924 23.9792 23.1924 24.9289 22.6066 25.5147ZM28 10C26.8955 10 26 10.8954 26 12C26 13.1046 26.8955 14 28 14L50 14C51.1046 14 52 13.1046 52 12C52 10.8954 51.1046 10 50 10L28 10ZM33 22C33 20.8954 33.8955 20 35 20L50 20C51.1046 20 52 20.8954 52 22C52 23.1046 51.1046 24 50 24L35 24C33.8955 24 33 23.1046 33 22ZM42 30C40.8955 30 40 30.8954 40 32C40 33.1046 40.8955 34 42 34H50C51.1046 34 52 33.1046 52 32C52 30.8954 51.1046 30 50 30H42Z" fill="white"/>
</svg>
